<svg width="160" height="160" viewBox="0 0 160 160" fill="none" xmlns="http://www.w3.org/2000/svg">
<g filter="url(#filter0_d)">
<rect width="152" height="152" transform="translate(4)" fill="#81B3D3"/>
<path d="M56.2539 93.356C56.3555 93.4587 56.407 93.5601 56.407 93.6628C56.5099 93.6628 56.6114 93.7129 56.713 93.8156C59.4701 96.8733 62.5861 99.7282 66.0582 102.379C69.5303 104.927 73.5142 106.303 78.0074 106.507C78.1103 106.507 78.2118 106.56 78.3134 106.661H78.7738C78.8754 106.661 78.9783 106.711 79.0799 106.814H80.7645C81.2763 106.711 81.7354 106.61 82.1443 106.507C83.7814 106.201 85.3427 105.577 86.7404 104.673C88.2707 103.755 89.4461 102.633 90.2626 101.308L90.57 100.696L90.8761 100.085C91.0805 99.3713 91.2336 98.709 91.3364 98.0966C91.438 97.4856 91.4895 96.9246 91.4895 96.415C91.4895 93.6628 90.2626 91.3689 87.8129 89.5332C85.5287 87.6335 82.9385 86.1339 80.1524 85.0981C79.1045 84.7121 78.029 84.4057 76.9349 84.1815C75.9744 83.8915 75.0037 83.6363 74.0247 83.4165H73.7187C73.6158 83.3151 73.5142 83.2637 73.4126 83.2637C68.4452 82.0555 63.6921 80.0957 59.3184 77.4525C54.9255 74.7003 51.9138 70.7748 50.2793 65.6773C49.9593 64.6106 49.6527 63.5399 49.3599 62.4655C49.1502 61.3016 48.997 60.1282 48.9008 58.9495C48.8067 58.5997 48.7553 58.2398 48.7478 57.8776V54.2076C48.8493 53.3924 49.0024 52.5773 49.2068 51.7609C49.524 49.6785 50.0368 47.6306 50.7384 45.6441C51.4534 43.6057 52.3729 41.77 53.4955 40.1397C56.7645 34.7354 60.9516 30.8613 66.0582 28.5173C71.2676 26.172 76.6803 25 82.2974 25C83.6258 25 84.9529 25.1014 86.2813 25.3055C87.7158 25.4078 89.1463 25.5607 90.57 25.7638C94.2954 26.3893 97.9421 27.4149 101.447 28.8228C105.123 30.2503 108.494 31.9319 111.558 33.8689L103.133 52.6787C100.383 50.6449 97.4609 48.8543 94.3996 47.3271C91.3365 45.7969 88.0174 45.0331 84.4424 45.0331H83.2155C80.8674 45.3386 78.6722 46.4092 76.6288 48.2436C74.5867 49.9766 73.5657 51.8636 73.5657 53.9021V54.8199C73.6672 55.1254 73.8203 55.4309 74.0247 55.7377C74.2292 56.4515 74.5867 57.1138 75.0972 57.7262C75.6078 58.3372 76.1697 58.8982 76.7818 59.4078C77.9058 60.3256 79.5389 61.1921 81.6853 62.0072C83.8289 62.721 86.0768 63.4347 88.4263 64.1484C90.3655 64.658 92.2546 65.1677 94.0936 65.6773C95.9325 66.0855 97.4641 66.4937 98.6896 66.9019C104.408 68.9404 108.698 72.355 111.558 77.147C114.417 81.8362 115.898 86.8323 116 92.1326V92.8977C116 93.5101 115.95 94.1224 115.847 94.7334V96.415C115.235 101.717 113.499 106.763 110.639 111.555C107.882 116.347 104.154 120.017 99.4561 122.566C97.7124 123.384 95.9217 124.099 94.0936 124.706C92.2678 125.213 90.4291 125.672 88.5793 126.083C87.0623 126.387 85.527 126.591 83.9833 126.694C82.5107 126.894 81.0264 126.996 79.5403 127H77.8543C71.7267 126.797 65.702 125.471 59.7775 123.023C53.8543 120.475 48.5947 117.111 44 112.931L56.2539 93.356Z" fill="white"/>
</g>
<defs>
<filter id="filter0_d" x="0" y="0" width="160" height="160" filterUnits="userSpaceOnUse" color-interpolation-filters="sRGB">
<feFlood flood-opacity="0" result="BackgroundImageFix"/>
<feColorMatrix in="SourceAlpha" type="matrix" values="0 0 0 0 0 0 0 0 0 0 0 0 0 0 0 0 0 0 127 0"/>
<feOffset dy="4"/>
<feGaussianBlur stdDeviation="2"/>
<feColorMatrix type="matrix" values="0 0 0 0 0 0 0 0 0 0 0 0 0 0 0 0 0 0 0.25 0"/>
<feBlend mode="normal" in2="BackgroundImageFix" result="effect1_dropShadow"/>
<feBlend mode="normal" in="SourceGraphic" in2="effect1_dropShadow" result="shape"/>
</filter>
</defs>
</svg>
